{
  "version": "0.5.0",
  "modules": [
    {
      "plugin": "Core",
      "model": "AudioInterface",
      "pos": [
        0.0,
        0.0
      ],
      "params": [],
      "data": {
        "driver": 6,
        "device": 3,
        "sampleRate": 44100.0,
        "blockSize": 1024
      }
    },
    {
      "plugin": "Befaco",
      "model": "EvenVCO",
      "pos": [
        510.0,
        0.0
      ],
      "params": [
        -1.0,
        0.0,
        0.0
      ]
    },
    {
      "plugin": "Befaco",
      "model": "EvenVCO",
      "pos": [
        210.0,
        0.0
      ],
      "params": [
        -2.0,
        0.0,
        0.0
      ]
    },
    {
      "plugin": "PvC",
      "model": "Compair",
      "pos": [
        360.0,
        0.0
      ],
      "params": [
        -1.9049997329711914,
        2.0929107666015625,
        2.0550003051757813,
        2.317685604095459,
        0.0,
        0.0
      ]
    },
    {
      "plugin": "AudibleInstruments",
      "model": "Veils",
      "pos": [
        0.0,
        380.0
      ],
      "params": [
        0.032999996095895767,
        0.0,
        0.034499999135732651,
        0.0,
        1.0,
        1.0,
        1.0,
        1.0
      ]
    },
    {
      "plugin": "Befaco",
      "model": "DualAtenuverter",
      "pos": [
        510.0,
        380.0
      ],
      "params": [
        0.0,
        0.0,
        0.1950000673532486,
        0.0
      ]
    },
    {
      "plugin": "AudibleInstruments",
      "model": "Kinks",
      "pos": [
        360.0,
        380.0
      ],
      "params": []
    },
    {
      "plugin": "Fundamental",
      "model": "LFO",
      "pos": [
        210.0,
        380.0
      ],
      "params": [
        0.0,
        1.0,
        -1.0,
        0.0,
        0.5,
        0.0,
        0.0
      ]
    }
  ],
  "wires": [
    {
      "outputModuleId": 1,
      "outputId": 0,
      "inputModuleId": 3,
      "inputId": 3
    },
    {
      "outputModuleId": 2,
      "outputId": 0,
      "inputModuleId": 3,
      "inputId": 0
    },
    {
      "outputModuleId": 3,
      "outputId": 6,
      "inputModuleId": 4,
      "inputId": 0
    },
    {
      "outputModuleId": 3,
      "outputId": 6,
      "inputModuleId": 4,
      "inputId": 2
    },
    {
      "outputModuleId": 4,
      "outputId": 1,
      "inputModuleId": 0,
      "inputId": 0
    },
    {
      "outputModuleId": 4,
      "outputId": 3,
      "inputModuleId": 0,
      "inputId": 1
    },
    {
      "outputModuleId": 5,
      "outputId": 1,
      "inputModuleId": 1,
      "inputId": 1
    },
    {
      "outputModuleId": 6,
      "outputId": 6,
      "inputModuleId": 5,
      "inputId": 1
    },
    {
      "outputModuleId": 7,
      "outputId": 3,
      "inputModuleId": 6,
      "inputId": 4
    },
    {
      "outputModuleId": 6,
      "outputId": 6,
      "inputModuleId": 3,
      "inputId": 4
    },
    {
      "outputModuleId": 7,
      "outputId": 1,
      "inputModuleId": 6,
      "inputId": 0
    },
    {
      "outputModuleId": 6,
      "outputId": 2,
      "inputModuleId": 3,
      "inputId": 2
    },
    {
      "outputModuleId": 6,
      "outputId": 1,
      "inputModuleId": 3,
      "inputId": 5
    },
    {
      "outputModuleId": 6,
      "outputId": 0,
      "inputModuleId": 3,
      "inputId": 1
    }
  ]
}