{
  "version": "0.5.0",
  "modules": [
    {
      "plugin": "Core",
      "model": "AudioInterface",
      "pos": [
        0.0,
        0.0
      ],
      "params": [],
      "data": {
        "driver": 6,
        "device": 3,
        "sampleRate": 44100.0,
        "blockSize": 1024
      }
    },
    {
      "plugin": "PvC",
      "model": "Compair",
      "pos": [
        345.0,
        0.0
      ],
      "params": [
        0.0,
        5.0,
        0.0,
        5.0,
        0.0,
        0.0
      ]
    },
    {
      "plugin": "Fundamental",
      "model": "LFO",
      "pos": [
        240.0,
        380.0
      ],
      "params": [
        0.0,
        1.0,
        0.092001169919967651,
        0.0,
        0.5,
        0.0,
        0.0
      ]
    },
    {
      "plugin": "AudibleInstruments",
      "model": "Braids",
      "pos": [
        780.0,
        0.0
      ],
      "params": [
        0.68699896335601807,
        -0.17100001871585846,
        -0.71999990940093994,
        0.0,
        0.5,
        0.40199998021125793,
        0.81349986791610718
      ],
      "data": {
        "settings": [
          32,
          0,
          0,
          0,
          0,
          0,
          0,
          0,
          0,
          0,
          0,
          4,
          0,
          0,
          0,
          0,
          0,
          0,
          0,
          0
        ],
        "lowCpu": true
      }
    },
    {
      "plugin": "AudibleInstruments",
      "model": "Braids",
      "pos": [
        1020.0,
        0.0
      ],
      "params": [
        0.772499680519104,
        -0.13200001418590546,
        0.0,
        -0.57599997520446777,
        1.0,
        0.0,
        0.0
      ],
      "data": {
        "settings": [
          36,
          0,
          0,
          0,
          0,
          0,
          0,
          0,
          0,
          0,
          0,
          4,
          0,
          0,
          0,
          0,
          0,
          0,
          0,
          0
        ],
        "lowCpu": true
      }
    },
    {
      "plugin": "AudibleInstruments",
      "model": "Braids",
      "pos": [
        1260.0,
        0.0
      ],
      "params": [
        0.71699917316436768,
        0.17100001871585846,
        -1.2239997386932373,
        0.065999999642372131,
        0.5,
        0.0,
        0.19399996101856232
      ],
      "data": {
        "settings": [
          33,
          0,
          0,
          0,
          0,
          0,
          0,
          0,
          0,
          0,
          0,
          4,
          0,
          0,
          0,
          0,
          0,
          0,
          0,
          0
        ],
        "lowCpu": true
      }
    },
    {
      "plugin": "AudibleInstruments",
      "model": "Braids",
      "pos": [
        1500.0,
        0.0
      ],
      "params": [
        0.73799949884414673,
        0.38699996471405029,
        -2.0,
        0.19800001382827759,
        0.0,
        0.0,
        0.21349996328353882
      ],
      "data": {
        "settings": [
          34,
          0,
          0,
          0,
          0,
          0,
          0,
          0,
          0,
          0,
          0,
          4,
          0,
          0,
          0,
          0,
          0,
          0,
          0,
          0
        ],
        "lowCpu": true
      }
    },
    {
      "plugin": "AudibleInstruments",
      "model": "Veils",
      "pos": [
        600.0,
        0.0
      ],
      "params": [
        1.0,
        1.0,
        1.0,
        1.0,
        1.0,
        1.0,
        1.0,
        1.0
      ]
    },
    {
      "plugin": "AudibleInstruments",
      "model": "Braids",
      "pos": [
        780.0,
        380.0
      ],
      "params": [
        0.69899958372116089,
        -0.17100001871585846,
        -2.0,
        0.030000010505318642,
        0.80000013113021851,
        -0.5700000524520874,
        0.20150002837181091
      ],
      "data": {
        "settings": [
          32,
          0,
          0,
          0,
          0,
          0,
          0,
          0,
          0,
          0,
          0,
          4,
          0,
          0,
          0,
          0,
          0,
          0,
          0,
          0
        ],
        "lowCpu": true
      }
    },
    {
      "plugin": "AudibleInstruments",
      "model": "Braids",
      "pos": [
        1020.0,
        380.0
      ],
      "params": [
        0.72149944305419922,
        -0.17100001871585846,
        -0.99000000953674316,
        0.1679999977350235,
        0.2359999418258667,
        -0.044999994337558746,
        0.80149984359741211
      ],
      "data": {
        "settings": [
          33,
          0,
          0,
          0,
          0,
          0,
          0,
          0,
          0,
          0,
          0,
          4,
          0,
          0,
          0,
          0,
          0,
          0,
          0,
          0
        ],
        "lowCpu": true
      }
    },
    {
      "plugin": "AudibleInstruments",
      "model": "Braids",
      "pos": [
        1260.0,
        380.0
      ],
      "params": [
        0.78749966621398926,
        -0.17100001871585846,
        -2.0,
        0.42599999904632568,
        0.18349993228912354,
        0.0,
        1.0
      ],
      "data": {
        "settings": [
          36,
          0,
          0,
          0,
          0,
          0,
          0,
          0,
          0,
          0,
          0,
          4,
          0,
          0,
          0,
          0,
          0,
          0,
          0,
          0
        ],
        "lowCpu": true
      }
    },
    {
      "plugin": "AudibleInstruments",
      "model": "Braids",
      "pos": [
        1500.0,
        380.0
      ],
      "params": [
        0.73649948835372925,
        -0.17100001871585846,
        -1.2739999294281006,
        -0.19600002467632294,
        0.8045000433921814,
        0.0,
        0.80899995565414429
      ],
      "data": {
        "settings": [
          34,
          0,
          0,
          0,
          0,
          0,
          0,
          0,
          0,
          0,
          0,
          4,
          0,
          0,
          0,
          0,
          0,
          0,
          0,
          0
        ],
        "lowCpu": true
      }
    },
    {
      "plugin": "AudibleInstruments",
      "model": "Veils",
      "pos": [
        600.0,
        380.0
      ],
      "params": [
        1.0,
        1.0,
        1.0,
        1.0,
        1.0,
        1.0,
        1.0,
        1.0
      ]
    },
    {
      "plugin": "Fundamental",
      "model": "LFO",
      "pos": [
        420.0,
        380.0
      ],
      "params": [
        0.0,
        1.0,
        0.0079995915293693542,
        0.0,
        0.5,
        0.0,
        0.0
      ]
    },
    {
      "plugin": "AudibleInstruments",
      "model": "Veils",
      "pos": [
        0.0,
        380.0
      ],
      "params": [
        0.27149984240531921,
        0.26250001788139343,
        0.50099998712539673,
        0.49950012564659119,
        1.0,
        1.0,
        1.0,
        1.0
      ]
    }
  ],
  "wires": [
    {
      "outputModuleId": 2,
      "outputId": 1,
      "inputModuleId": 1,
      "inputId": 1
    },
    {
      "outputModuleId": 3,
      "outputId": 0,
      "inputModuleId": 7,
      "inputId": 0
    },
    {
      "outputModuleId": 4,
      "outputId": 0,
      "inputModuleId": 7,
      "inputId": 1
    },
    {
      "outputModuleId": 5,
      "outputId": 0,
      "inputModuleId": 7,
      "inputId": 2
    },
    {
      "outputModuleId": 6,
      "outputId": 0,
      "inputModuleId": 7,
      "inputId": 3
    },
    {
      "outputModuleId": 7,
      "outputId": 3,
      "inputModuleId": 14,
      "inputId": 1
    },
    {
      "outputModuleId": 8,
      "outputId": 0,
      "inputModuleId": 12,
      "inputId": 0
    },
    {
      "outputModuleId": 9,
      "outputId": 0,
      "inputModuleId": 12,
      "inputId": 1
    },
    {
      "outputModuleId": 10,
      "outputId": 0,
      "inputModuleId": 12,
      "inputId": 2
    },
    {
      "outputModuleId": 11,
      "outputId": 0,
      "inputModuleId": 12,
      "inputId": 3
    },
    {
      "outputModuleId": 12,
      "outputId": 3,
      "inputModuleId": 14,
      "inputId": 0
    },
    {
      "outputModuleId": 13,
      "outputId": 1,
      "inputModuleId": 1,
      "inputId": 4
    },
    {
      "outputModuleId": 1,
      "outputId": 0,
      "inputModuleId": 3,
      "inputId": 0
    },
    {
      "outputModuleId": 1,
      "outputId": 1,
      "inputModuleId": 4,
      "inputId": 0
    },
    {
      "outputModuleId": 1,
      "outputId": 3,
      "inputModuleId": 9,
      "inputId": 0
    },
    {
      "outputModuleId": 1,
      "outputId": 2,
      "inputModuleId": 8,
      "inputId": 0
    },
    {
      "outputModuleId": 1,
      "outputId": 4,
      "inputModuleId": 5,
      "inputId": 0
    },
    {
      "outputModuleId": 1,
      "outputId": 6,
      "inputModuleId": 6,
      "inputId": 0
    },
    {
      "outputModuleId": 1,
      "outputId": 5,
      "inputModuleId": 10,
      "inputId": 0
    },
    {
      "outputModuleId": 1,
      "outputId": 7,
      "inputModuleId": 11,
      "inputId": 0
    },
    {
      "outputModuleId": 14,
      "outputId": 3,
      "inputModuleId": 0,
      "inputId": 0
    },
    {
      "outputModuleId": 14,
      "outputId": 3,
      "inputModuleId": 0,
      "inputId": 1
    },
    {
      "outputModuleId": 2,
      "outputId": 0,
      "inputModuleId": 8,
      "inputId": 3
    },
    {
      "outputModuleId": 13,
      "outputId": 0,
      "inputModuleId": 3,
      "inputId": 3
    },
    {
      "outputModuleId": 13,
      "outputId": 2,
      "inputModuleId": 5,
      "inputId": 2
    },
    {
      "outputModuleId": 2,
      "outputId": 2,
      "inputModuleId": 9,
      "inputId": 2
    },
    {
      "outputModuleId": 1,
      "outputId": 7,
      "inputModuleId": 11,
      "inputId": 2
    },
    {
      "outputModuleId": 1,
      "outputId": 6,
      "inputModuleId": 6,
      "inputId": 2
    },
    {
      "outputModuleId": 2,
      "outputId": 3,
      "inputModuleId": 4,
      "inputId": 2
    },
    {
      "outputModuleId": 13,
      "outputId": 3,
      "inputModuleId": 10,
      "inputId": 2
    },
    {
      "outputModuleId": 2,
      "outputId": 3,
      "inputModuleId": 13,
      "inputId": 2
    }
  ]
}